<?xml version="1.0" encoding="UTF-8"?>
<!DOCTYPE svg PUBLIC "-//W3C//DTD SVG 1.1//EN" "http://www.w3.org/Graphics/SVG/1.1/DTD/svg11.dtd">
<svg version="1.1" xmlns="http://www.w3.org/2000/svg" xmlns:xlink="http://www.w3.org/1999/xlink" x="0" y="0" width="800" height="240" viewBox="0, 0, 800, 240">
  <g id="Layer_1">
    <g>
      <g>
        <path d="M126.119,91.806 L255.73,140.595 L255.73,189.383 L126.119,140.595 L126.119,91.806 z" fill="#9F3838"/>
        <path d="M126.119,91.806 L255.73,140.595 L255.73,189.383 L126.119,140.595 L126.119,91.806 z" fill-opacity="0" stroke="#000000" stroke-width="2"/>
      </g>
      <g>
        <path d="M167.978,171.444 L255.73,140.934 L255.73,189.722 L167.978,220.232 L167.978,171.444 z" fill="#9F3838"/>
        <path d="M167.978,171.444 L255.73,140.934 L255.73,189.722 L167.978,220.232 L167.978,171.444 z" fill-opacity="0" stroke="#000000" stroke-width="2"/>
      </g>
      <g>
        <path d="M38.368,122.316 L126.119,91.806 L126.119,140.595 L38.368,171.105 L38.368,122.316 z" fill="#9F3838"/>
        <path d="M38.368,122.316 L126.119,91.806 L126.119,140.595 L38.368,171.105 L38.368,122.316 z" fill-opacity="0" stroke="#000000" stroke-width="2"/>
      </g>
      <g>
        <path d="M38.368,122.655 L167.978,171.444 L167.978,220.232 L38.368,171.444 L38.368,122.655 z" fill="#9F3838"/>
        <path d="M38.368,122.655 L167.978,171.444 L167.978,220.232 L38.368,171.444 L38.368,122.655 z" fill-opacity="0" stroke="#000000" stroke-width="2"/>
      </g>
      <g>
        <path d="M126.119,91.806 L255.73,140.934 L167.978,171.444 L38.368,122.655 L126.119,91.806 z" fill="#9F3838"/>
        <path d="M126.119,91.806 L255.73,140.934 L167.978,171.444 L38.368,122.655 L126.119,91.806 z" fill-opacity="0" stroke="#000000" stroke-width="2"/>
      </g>
    </g>
    <g>
      <g>
        <path d="M151.412,114.432 L183.896,114.432 L183.896,123.266 C183.896,127.149 176.624,130.297 167.654,130.297 C158.684,130.297 151.412,127.149 151.412,123.266 L151.412,114.432 z" fill="#9F3838"/>
        <path d="M151.412,114.432 L183.896,114.432 L183.896,123.266 C183.896,127.149 176.624,130.297 167.654,130.297 C158.684,130.297 151.412,127.149 151.412,123.266 L151.412,114.432 z" fill-opacity="0" stroke="#000000" stroke-width="2"/>
      </g>
      <g>
        <path d="M167.654,121.462 C158.684,121.462 151.412,118.315 151.412,114.432 C151.412,110.549 158.684,107.402 167.654,107.402 C176.624,107.402 183.896,110.549 183.896,114.432 C183.896,118.315 176.624,121.462 167.654,121.462 z" fill="#9F3838"/>
        <path d="M167.654,121.462 C158.684,121.462 151.412,118.315 151.412,114.432 C151.412,110.549 158.684,107.402 167.654,107.402 C176.624,107.402 183.896,110.549 183.896,114.432 C183.896,118.315 176.624,121.462 167.654,121.462 z" fill-opacity="0" stroke="#000000" stroke-width="2"/>
      </g>
    </g>
    <g>
      <g>
        <path d="M194.257,128.669 L226.74,128.669 L226.74,137.503 C226.74,141.386 219.469,144.533 210.499,144.533 C201.529,144.533 194.257,141.386 194.257,137.503 L194.257,128.669 z" fill="#9F3838"/>
        <path d="M194.257,128.669 L226.74,128.669 L226.74,137.503 C226.74,141.386 219.469,144.533 210.499,144.533 C201.529,144.533 194.257,141.386 194.257,137.503 L194.257,128.669 z" fill-opacity="0" stroke="#000000" stroke-width="2"/>
      </g>
      <g>
        <path d="M210.499,135.699 C201.529,135.699 194.257,132.551 194.257,128.669 C194.257,124.786 201.529,121.638 210.499,121.638 C219.469,121.638 226.74,124.786 226.74,128.669 C226.74,132.551 219.469,135.699 210.499,135.699 z" fill="#9F3838"/>
        <path d="M210.499,135.699 C201.529,135.699 194.257,132.551 194.257,128.669 C194.257,124.786 201.529,121.638 210.499,121.638 C219.469,121.638 226.74,124.786 226.74,128.669 C226.74,132.551 219.469,135.699 210.499,135.699 z" fill-opacity="0" stroke="#000000" stroke-width="2"/>
      </g>
    </g>
    <g>
      <g>
        <path d="M110.295,98.328 L142.778,98.328 L142.778,107.162 C142.778,111.045 135.507,114.192 126.537,114.192 C117.566,114.192 110.295,111.045 110.295,107.162 L110.295,98.328 z" fill="#9F3838"/>
        <path d="M110.295,98.328 L142.778,98.328 L142.778,107.162 C142.778,111.045 135.507,114.192 126.537,114.192 C117.566,114.192 110.295,111.045 110.295,107.162 L110.295,98.328 z" fill-opacity="0" stroke="#000000" stroke-width="2"/>
      </g>
      <g>
        <path d="M126.537,105.358 C117.566,105.358 110.295,102.211 110.295,98.328 C110.295,94.445 117.566,91.298 126.537,91.298 C135.507,91.298 142.778,94.445 142.778,98.328 C142.778,102.211 135.507,105.358 126.537,105.358 z" fill="#9F3838"/>
        <path d="M126.537,105.358 C117.566,105.358 110.295,102.211 110.295,98.328 C110.295,94.445 117.566,91.298 126.537,91.298 C135.507,91.298 142.778,94.445 142.778,98.328 C142.778,102.211 135.507,105.358 126.537,105.358 z" fill-opacity="0" stroke="#000000" stroke-width="2"/>
      </g>
    </g>
    <g>
      <g>
        <g>
          <path d="M168.684,27.108 L298.294,75.897 L298.294,124.685 L168.684,75.897 L168.684,27.108 z" fill="#9F3838"/>
          <path d="M168.684,27.108 L298.294,75.897 L298.294,124.685 L168.684,75.897 L168.684,27.108 z" fill-opacity="0" stroke="#000000" stroke-width="2"/>
        </g>
        <g>
          <path d="M210.542,106.745 L298.294,76.235 L298.294,125.024 L210.542,155.534 L210.542,106.745 z" fill="#9F3838"/>
          <path d="M210.542,106.745 L298.294,76.235 L298.294,125.024 L210.542,155.534 L210.542,106.745 z" fill-opacity="0" stroke="#000000" stroke-width="2"/>
        </g>
        <g>
          <path d="M80.932,57.618 L168.684,27.108 L168.684,75.897 L80.932,106.407 L80.932,57.618 z" fill="#9F3838"/>
          <path d="M80.932,57.618 L168.684,27.108 L168.684,75.897 L80.932,106.407 L80.932,57.618 z" fill-opacity="0" stroke="#000000" stroke-width="2"/>
        </g>
        <g>
          <path d="M80.932,57.957 L210.543,106.745 L210.543,155.534 L80.932,106.745 L80.932,57.957 z" fill="#9F3838"/>
          <path d="M80.932,57.957 L210.543,106.745 L210.543,155.534 L80.932,106.745 L80.932,57.957 z" fill-opacity="0" stroke="#000000" stroke-width="2"/>
        </g>
        <g>
          <path d="M168.684,27.108 L298.294,76.235 L210.543,106.745 L80.932,57.957 L168.684,27.108 z" fill="#9F3838"/>
          <path d="M168.684,27.108 L298.294,76.235 L210.543,106.745 L80.932,57.957 L168.684,27.108 z" fill-opacity="0" stroke="#000000" stroke-width="2"/>
        </g>
      </g>
      <g>
        <g>
          <path d="M152.351,64.267 L184.834,64.267 L184.834,73.101 C184.834,76.984 177.562,80.132 168.592,80.132 C159.622,80.132 152.351,76.984 152.351,73.101 L152.351,64.267 z" fill="#9F3838"/>
          <path d="M152.351,64.267 L184.834,64.267 L184.834,73.101 C184.834,76.984 177.562,80.132 168.592,80.132 C159.622,80.132 152.351,76.984 152.351,73.101 L152.351,64.267 z" fill-opacity="0" stroke="#000000" stroke-width="2"/>
        </g>
        <g>
          <path d="M168.592,71.297 C159.622,71.297 152.351,68.15 152.351,64.267 C152.351,60.384 159.622,57.237 168.592,57.237 C177.562,57.237 184.834,60.384 184.834,64.267 C184.834,68.15 177.562,71.297 168.592,71.297 z" fill="#9F3838"/>
          <path d="M168.592,71.297 C159.622,71.297 152.351,68.15 152.351,64.267 C152.351,60.384 159.622,57.237 168.592,57.237 C177.562,57.237 184.834,60.384 184.834,64.267 C184.834,68.15 177.562,71.297 168.592,71.297 z" fill-opacity="0" stroke="#000000" stroke-width="2"/>
        </g>
      </g>
      <g>
        <g>
          <path d="M193.977,49.734 L226.46,49.734 L226.46,58.568 C226.46,62.451 219.188,65.599 210.218,65.599 C201.248,65.599 193.977,62.451 193.977,58.568 L193.977,49.734 z" fill="#9F3838"/>
          <path d="M193.977,49.734 L226.46,49.734 L226.46,58.568 C226.46,62.451 219.188,65.599 210.218,65.599 C201.248,65.599 193.977,62.451 193.977,58.568 L193.977,49.734 z" fill-opacity="0" stroke="#000000" stroke-width="2"/>
        </g>
        <g>
          <path d="M210.218,56.764 C201.248,56.764 193.977,53.617 193.977,49.734 C193.977,45.851 201.248,42.704 210.218,42.704 C219.188,42.704 226.46,45.851 226.46,49.734 C226.46,53.617 219.188,56.764 210.218,56.764 z" fill="#9F3838"/>
          <path d="M210.218,56.764 C201.248,56.764 193.977,53.617 193.977,49.734 C193.977,45.851 201.248,42.704 210.218,42.704 C219.188,42.704 226.46,45.851 226.46,49.734 C226.46,53.617 219.188,56.764 210.218,56.764 z" fill-opacity="0" stroke="#000000" stroke-width="2"/>
        </g>
      </g>
      <g>
        <g>
          <path d="M195.196,79.012 L227.679,79.012 L227.679,87.846 C227.679,91.729 220.407,94.876 211.437,94.876 C202.467,94.876 195.196,91.729 195.196,87.846 L195.196,79.012 z" fill="#9F3838"/>
          <path d="M195.196,79.012 L227.679,79.012 L227.679,87.846 C227.679,91.729 220.407,94.876 211.437,94.876 C202.467,94.876 195.196,91.729 195.196,87.846 L195.196,79.012 z" fill-opacity="0" stroke="#000000" stroke-width="2"/>
        </g>
        <g>
          <path d="M211.437,86.042 C202.467,86.042 195.196,82.895 195.196,79.012 C195.196,75.129 202.467,71.982 211.437,71.982 C220.407,71.982 227.679,75.129 227.679,79.012 C227.679,82.895 220.407,86.042 211.437,86.042 z" fill="#9F3838"/>
          <path d="M211.437,86.042 C202.467,86.042 195.196,82.895 195.196,79.012 C195.196,75.129 202.467,71.982 211.437,71.982 C220.407,71.982 227.679,75.129 227.679,79.012 C227.679,82.895 220.407,86.042 211.437,86.042 z" fill-opacity="0" stroke="#000000" stroke-width="2"/>
        </g>
      </g>
      <g>
        <g>
          <path d="M236.821,63.971 L269.305,63.971 L269.305,72.805 C269.305,76.688 262.033,79.835 253.063,79.835 C244.093,79.835 236.821,76.688 236.821,72.805 L236.821,63.971 z" fill="#9F3838"/>
          <path d="M236.821,63.971 L269.305,63.971 L269.305,72.805 C269.305,76.688 262.033,79.835 253.063,79.835 C244.093,79.835 236.821,76.688 236.821,72.805 L236.821,63.971 z" fill-opacity="0" stroke="#000000" stroke-width="2"/>
        </g>
        <g>
          <path d="M253.063,71.001 C244.093,71.001 236.821,67.853 236.821,63.971 C236.821,60.088 244.093,56.94 253.063,56.94 C262.033,56.94 269.305,60.088 269.305,63.971 C269.305,67.853 262.033,71.001 253.063,71.001 z" fill="#9F3838"/>
          <path d="M253.063,71.001 C244.093,71.001 236.821,67.853 236.821,63.971 C236.821,60.088 244.093,56.94 253.063,56.94 C262.033,56.94 269.305,60.088 269.305,63.971 C269.305,67.853 262.033,71.001 253.063,71.001 z" fill-opacity="0" stroke="#000000" stroke-width="2"/>
        </g>
      </g>
      <g>
        <g>
          <path d="M111.26,48.812 L143.744,48.812 L143.744,57.646 C143.744,61.529 136.472,64.677 127.502,64.677 C118.532,64.677 111.26,61.529 111.26,57.647 L111.26,48.812 z" fill="#9F3838"/>
          <path d="M111.26,48.812 L143.744,48.812 L143.744,57.646 C143.744,61.529 136.472,64.677 127.502,64.677 C118.532,64.677 111.26,61.529 111.26,57.647 L111.26,48.812 z" fill-opacity="0" stroke="#000000" stroke-width="2"/>
        </g>
        <g>
          <path d="M127.502,55.843 C118.532,55.843 111.26,52.695 111.26,48.812 C111.26,44.93 118.532,41.782 127.502,41.782 C136.472,41.782 143.744,44.93 143.744,48.812 C143.744,52.695 136.472,55.843 127.502,55.843 z" fill="#9F3838"/>
          <path d="M127.502,55.843 C118.532,55.843 111.26,52.695 111.26,48.812 C111.26,44.93 118.532,41.782 127.502,41.782 C136.472,41.782 143.744,44.93 143.744,48.812 C143.744,52.695 136.472,55.843 127.502,55.843 z" fill-opacity="0" stroke="#000000" stroke-width="2"/>
        </g>
      </g>
      <g>
        <g>
          <path d="M152.859,33.63 L185.342,33.63 L185.342,42.464 C185.342,46.347 178.071,49.495 169.101,49.495 C160.131,49.495 152.859,46.347 152.859,42.464 L152.859,33.63 z" fill="#9F3838"/>
          <path d="M152.859,33.63 L185.342,33.63 L185.342,42.464 C185.342,46.347 178.071,49.495 169.101,49.495 C160.131,49.495 152.859,46.347 152.859,42.464 L152.859,33.63 z" fill-opacity="0" stroke="#000000" stroke-width="2"/>
        </g>
        <g>
          <path d="M169.101,40.66 C160.131,40.66 152.859,37.513 152.859,33.63 C152.859,29.747 160.131,26.6 169.101,26.6 C178.071,26.6 185.342,29.747 185.342,33.63 C185.342,37.513 178.071,40.66 169.101,40.66 z" fill="#9F3838"/>
          <path d="M169.101,40.66 C160.131,40.66 152.859,37.513 152.859,33.63 C152.859,29.747 160.131,26.6 169.101,26.6 C178.071,26.6 185.342,29.747 185.342,33.63 C185.342,37.513 178.071,40.66 169.101,40.66 z" fill-opacity="0" stroke="#000000" stroke-width="2"/>
        </g>
      </g>
    </g>
    <g>
      <g>
        <path d="M109.787,128.965 L142.27,128.965 L142.27,137.799 C142.27,141.682 134.998,144.83 126.028,144.83 C117.058,144.83 109.787,141.682 109.787,137.799 L109.787,128.965 z" fill="#9F3838"/>
        <path d="M109.787,128.965 L142.27,128.965 L142.27,137.799 C142.27,141.682 134.998,144.83 126.028,144.83 C117.058,144.83 109.787,141.682 109.787,137.799 L109.787,128.965 z" fill-opacity="0" stroke="#000000" stroke-width="2"/>
      </g>
      <g>
        <path d="M126.028,135.995 C117.058,135.995 109.787,132.848 109.787,128.965 C109.787,125.082 117.058,121.935 126.028,121.935 C134.998,121.935 142.27,125.082 142.27,128.965 C142.27,132.848 134.998,135.995 126.028,135.995 z" fill="#9F3838"/>
        <path d="M126.028,135.995 C117.058,135.995 109.787,132.848 109.787,128.965 C109.787,125.082 117.058,121.935 126.028,121.935 C134.998,121.935 142.27,125.082 142.27,128.965 C142.27,132.848 134.998,135.995 126.028,135.995 z" fill-opacity="0" stroke="#000000" stroke-width="2"/>
      </g>
    </g>
    <g>
      <g>
        <path d="M152.631,143.71 L185.115,143.71 L185.115,152.544 C185.115,156.427 177.843,159.575 168.873,159.575 C159.903,159.575 152.631,156.427 152.631,152.544 L152.631,143.71 z" fill="#9F3838"/>
        <path d="M152.631,143.71 L185.115,143.71 L185.115,152.544 C185.115,156.427 177.843,159.575 168.873,159.575 C159.903,159.575 152.631,156.427 152.631,152.544 L152.631,143.71 z" fill-opacity="0" stroke="#000000" stroke-width="2"/>
      </g>
      <g>
        <path d="M168.873,150.74 C159.903,150.74 152.631,147.593 152.631,143.71 C152.631,139.827 159.903,136.68 168.873,136.68 C177.843,136.68 185.115,139.827 185.115,143.71 C185.115,147.593 177.843,150.74 168.873,150.74 z" fill="#9F3838"/>
        <path d="M168.873,150.74 C159.903,150.74 152.631,147.593 152.631,143.71 C152.631,139.827 159.903,136.68 168.873,136.68 C177.843,136.68 185.115,139.827 185.115,143.71 C185.115,147.593 177.843,150.74 168.873,150.74 z" fill-opacity="0" stroke="#000000" stroke-width="2"/>
      </g>
    </g>
    <g>
      <g>
        <path d="M68.696,113.51 L101.179,113.51 L101.179,122.344 C101.179,126.227 93.907,129.375 84.937,129.375 C75.967,129.375 68.696,126.227 68.696,122.344 L68.696,113.51 z" fill="#9F3838"/>
        <path d="M68.696,113.51 L101.179,113.51 L101.179,122.344 C101.179,126.227 93.907,129.375 84.937,129.375 C75.967,129.375 68.696,126.227 68.696,122.344 L68.696,113.51 z" fill-opacity="0" stroke="#000000" stroke-width="2"/>
      </g>
      <g>
        <path d="M84.937,120.54 C75.967,120.54 68.696,117.393 68.696,113.51 C68.696,109.627 75.967,106.48 84.937,106.48 C93.907,106.48 101.179,109.627 101.179,113.51 C101.179,117.393 93.907,120.54 84.937,120.54 z" fill="#9F3838"/>
        <path d="M84.937,120.54 C75.967,120.54 68.696,117.393 68.696,113.51 C68.696,109.627 75.967,106.48 84.937,106.48 C93.907,106.48 101.179,109.627 101.179,113.51 C101.179,117.393 93.907,120.54 84.937,120.54 z" fill-opacity="0" stroke="#000000" stroke-width="2"/>
      </g>
    </g>
    <text transform="matrix(1, 0, 0, 1, 583.937, 123.349)">
      <tspan x="-246.758" y="45.341" font-family="Raleway-Light" font-size="140" fill="#000000">rbricks</tspan>
    </text>
  </g>
</svg>
