<?xml version="1.0" encoding="UTF-8"?>
<!DOCTYPE svg PUBLIC "-//W3C//DTD SVG 1.1//EN" "http://www.w3.org/Graphics/SVG/1.1/DTD/svg11.dtd">
<svg version="1.1" xmlns="http://www.w3.org/2000/svg" xmlns:xlink="http://www.w3.org/1999/xlink" x="0" y="0" width="480" height="480" viewBox="0, 0, 480, 480">
  <g id="Layer_1">
    <g>
      <g>
        <g>
          <path d="M172.129,189.3 L382.063,268.325 L382.063,347.349 L172.129,268.325 L172.129,189.3 z" fill="#9F3838"/>
          <path d="M172.129,189.3 L382.063,268.325 L382.063,347.349 L172.129,268.325 L172.129,189.3 z" fill-opacity="0" stroke="#000000" stroke-width="2"/>
        </g>
        <g>
          <path d="M239.929,318.292 L382.063,268.874 L382.063,347.898 L239.929,397.316 L239.929,318.292 z" fill="#9F3838"/>
          <path d="M239.929,318.292 L382.063,268.874 L382.063,347.898 L239.929,397.316 L239.929,318.292 z" fill-opacity="0" stroke="#000000" stroke-width="2"/>
        </g>
        <g>
          <path d="M29.994,238.719 L172.129,189.3 L172.129,268.325 L29.994,317.743 L29.994,238.719 z" fill="#9F3838"/>
          <path d="M29.994,238.719 L172.129,189.3 L172.129,268.325 L29.994,317.743 L29.994,238.719 z" fill-opacity="0" stroke="#000000" stroke-width="2"/>
        </g>
        <g>
          <path d="M29.994,239.267 L239.929,318.292 L239.929,397.316 L29.994,318.292 L29.994,239.267 z" fill="#9F3838"/>
          <path d="M29.994,239.267 L239.929,318.292 L239.929,397.316 L29.994,318.292 L29.994,239.267 z" fill-opacity="0" stroke="#000000" stroke-width="2"/>
        </g>
        <g>
          <path d="M172.128,189.3 L382.063,268.874 L239.929,318.292 L29.994,239.267 L172.128,189.3 z" fill="#9F3838"/>
          <path d="M172.128,189.3 L382.063,268.874 L239.929,318.292 L29.994,239.267 L172.128,189.3 z" fill-opacity="0" stroke="#000000" stroke-width="2"/>
        </g>
      </g>
      <g>
        <g>
          <path d="M213.096,225.948 L265.711,225.948 L265.711,240.257 C265.711,246.546 253.933,251.645 239.404,251.645 C224.875,251.645 213.096,246.546 213.096,240.257 L213.096,225.948 z" fill="#9F3838"/>
          <path d="M213.096,225.948 L265.711,225.948 L265.711,240.257 C265.711,246.546 253.933,251.645 239.404,251.645 C224.875,251.645 213.096,246.546 213.096,240.257 L213.096,225.948 z" fill-opacity="0" stroke="#000000" stroke-width="2"/>
        </g>
        <g>
          <path d="M239.404,237.336 C224.875,237.336 213.096,232.237 213.096,225.948 C213.096,219.659 224.875,214.561 239.404,214.561 C253.933,214.561 265.711,219.659 265.711,225.948 C265.711,232.237 253.933,237.336 239.404,237.336 z" fill="#9F3838"/>
          <path d="M239.404,237.336 C224.875,237.336 213.096,232.237 213.096,225.948 C213.096,219.659 224.875,214.561 239.404,214.561 C253.933,214.561 265.711,219.659 265.711,225.948 C265.711,232.237 253.933,237.336 239.404,237.336 z" fill-opacity="0" stroke="#000000" stroke-width="2"/>
        </g>
      </g>
      <g>
        <g>
          <path d="M282.493,249.008 L335.107,249.008 L335.107,263.317 C335.107,269.606 323.329,274.704 308.8,274.704 C294.271,274.704 282.493,269.606 282.493,263.317 L282.493,249.008 z" fill="#9F3838"/>
          <path d="M282.493,249.008 L335.107,249.008 L335.107,263.317 C335.107,269.606 323.329,274.704 308.8,274.704 C294.271,274.704 282.493,269.606 282.493,263.317 L282.493,249.008 z" fill-opacity="0" stroke="#000000" stroke-width="2"/>
        </g>
        <g>
          <path d="M308.8,260.395 C294.271,260.395 282.493,255.297 282.493,249.008 C282.493,242.719 294.271,237.621 308.8,237.621 C323.329,237.621 335.107,242.719 335.107,249.008 C335.107,255.297 323.329,260.395 308.8,260.395 z" fill="#9F3838"/>
          <path d="M308.8,260.395 C294.271,260.395 282.493,255.297 282.493,249.008 C282.493,242.719 294.271,237.621 308.8,237.621 C323.329,237.621 335.107,242.719 335.107,249.008 C335.107,255.297 323.329,260.395 308.8,260.395 z" fill-opacity="0" stroke="#000000" stroke-width="2"/>
        </g>
      </g>
      <g>
        <g>
          <path d="M146.497,199.864 L199.111,199.864 L199.111,214.173 C199.111,220.462 187.333,225.56 172.804,225.56 C158.275,225.56 146.497,220.462 146.497,214.173 L146.497,199.864 z" fill="#9F3838"/>
          <path d="M146.497,199.864 L199.111,199.864 L199.111,214.173 C199.111,220.462 187.333,225.56 172.804,225.56 C158.275,225.56 146.497,220.462 146.497,214.173 L146.497,199.864 z" fill-opacity="0" stroke="#000000" stroke-width="2"/>
        </g>
        <g>
          <path d="M172.804,211.251 C158.275,211.251 146.497,206.153 146.497,199.864 C146.497,193.575 158.275,188.477 172.804,188.477 C187.333,188.477 199.111,193.575 199.111,199.864 C199.111,206.153 187.333,211.251 172.804,211.251 z" fill="#9F3838"/>
          <path d="M172.804,211.251 C158.275,211.251 146.497,206.153 146.497,199.864 C146.497,193.575 158.275,188.477 172.804,188.477 C187.333,188.477 199.111,193.575 199.111,199.864 C199.111,206.153 187.333,211.251 172.804,211.251 z" fill-opacity="0" stroke="#000000" stroke-width="2"/>
        </g>
      </g>
      <g>
        <g>
          <g>
            <path d="M241.071,84.507 L451.006,163.531 L451.006,242.556 L241.071,163.531 L241.071,84.507 z" fill="#9F3838"/>
            <path d="M241.071,84.507 L451.006,163.531 L451.006,242.556 L241.071,163.531 L241.071,84.507 z" fill-opacity="0" stroke="#000000" stroke-width="2"/>
          </g>
          <g>
            <path d="M308.871,213.498 L451.006,164.08 L451.006,243.104 L308.871,292.523 L308.871,213.498 z" fill="#9F3838"/>
            <path d="M308.871,213.498 L451.006,164.08 L451.006,243.104 L308.871,292.523 L308.871,213.498 z" fill-opacity="0" stroke="#000000" stroke-width="2"/>
          </g>
          <g>
            <path d="M98.937,133.925 L241.071,84.507 L241.071,163.531 L98.937,212.949 L98.937,133.925 z" fill="#9F3838"/>
            <path d="M98.937,133.925 L241.071,84.507 L241.071,163.531 L98.937,212.949 L98.937,133.925 z" fill-opacity="0" stroke="#000000" stroke-width="2"/>
          </g>
          <g>
            <path d="M98.937,134.474 L308.871,213.498 L308.871,292.523 L98.937,213.498 L98.937,134.474 z" fill="#9F3838"/>
            <path d="M98.937,134.474 L308.871,213.498 L308.871,292.523 L98.937,213.498 L98.937,134.474 z" fill-opacity="0" stroke="#000000" stroke-width="2"/>
          </g>
          <g>
            <path d="M241.071,84.507 L451.006,164.08 L308.871,213.498 L98.937,134.474 L241.071,84.507 z" fill="#9F3838"/>
            <path d="M241.071,84.507 L451.006,164.08 L308.871,213.498 L98.937,134.474 L241.071,84.507 z" fill-opacity="0" stroke="#000000" stroke-width="2"/>
          </g>
        </g>
        <g>
          <g>
            <path d="M214.616,144.695 L267.231,144.695 L267.231,159.004 C267.231,165.293 255.453,170.391 240.923,170.391 C226.394,170.391 214.616,165.293 214.616,159.004 L214.616,144.695 z" fill="#9F3838"/>
            <path d="M214.616,144.695 L267.231,144.695 L267.231,159.004 C267.231,165.293 255.453,170.391 240.923,170.391 C226.394,170.391 214.616,165.293 214.616,159.004 L214.616,144.695 z" fill-opacity="0" stroke="#000000" stroke-width="2"/>
          </g>
          <g>
            <path d="M240.924,156.082 C226.394,156.082 214.616,150.984 214.616,144.695 C214.616,138.406 226.394,133.308 240.924,133.308 C255.453,133.308 267.231,138.406 267.231,144.695 C267.231,150.984 255.453,156.082 240.924,156.082 z" fill="#9F3838"/>
            <path d="M240.924,156.082 C226.394,156.082 214.616,150.984 214.616,144.695 C214.616,138.406 226.394,133.308 240.924,133.308 C255.453,133.308 267.231,138.406 267.231,144.695 C267.231,150.984 255.453,156.082 240.924,156.082 z" fill-opacity="0" stroke="#000000" stroke-width="2"/>
          </g>
        </g>
        <g>
          <g>
            <path d="M282.039,121.155 L334.654,121.155 L334.654,135.464 C334.654,141.753 322.875,146.851 308.346,146.851 C293.817,146.851 282.039,141.753 282.039,135.464 L282.039,121.155 z" fill="#9F3838"/>
            <path d="M282.039,121.155 L334.654,121.155 L334.654,135.464 C334.654,141.753 322.875,146.851 308.346,146.851 C293.817,146.851 282.039,141.753 282.039,135.464 L282.039,121.155 z" fill-opacity="0" stroke="#000000" stroke-width="2"/>
          </g>
          <g>
            <path d="M308.346,132.542 C293.817,132.542 282.039,127.444 282.039,121.155 C282.039,114.866 293.817,109.768 308.346,109.768 C322.875,109.768 334.654,114.866 334.654,121.155 C334.654,127.444 322.875,132.542 308.346,132.542 z" fill="#9F3838"/>
            <path d="M308.346,132.542 C293.817,132.542 282.039,127.444 282.039,121.155 C282.039,114.866 293.817,109.768 308.346,109.768 C322.875,109.768 334.654,114.866 334.654,121.155 C334.654,127.444 322.875,132.542 308.346,132.542 z" fill-opacity="0" stroke="#000000" stroke-width="2"/>
          </g>
        </g>
        <g>
          <g>
            <path d="M284.014,168.577 L336.628,168.577 L336.628,182.886 C336.628,189.175 324.85,194.274 310.321,194.274 C295.792,194.274 284.014,189.175 284.014,182.886 L284.014,168.577 z" fill="#9F3838"/>
            <path d="M284.014,168.577 L336.628,168.577 L336.628,182.886 C336.628,189.175 324.85,194.274 310.321,194.274 C295.792,194.274 284.014,189.175 284.014,182.886 L284.014,168.577 z" fill-opacity="0" stroke="#000000" stroke-width="2"/>
          </g>
          <g>
            <path d="M310.321,179.965 C295.792,179.965 284.014,174.866 284.014,168.577 C284.014,162.288 295.792,157.19 310.321,157.19 C324.85,157.19 336.628,162.288 336.628,168.577 C336.628,174.866 324.85,179.965 310.321,179.965 z" fill="#9F3838"/>
            <path d="M310.321,179.965 C295.792,179.965 284.014,174.866 284.014,168.577 C284.014,162.288 295.792,157.19 310.321,157.19 C324.85,157.19 336.628,162.288 336.628,168.577 C336.628,174.866 324.85,179.965 310.321,179.965 z" fill-opacity="0" stroke="#000000" stroke-width="2"/>
          </g>
        </g>
        <g>
          <g>
            <path d="M351.436,144.215 L404.05,144.215 L404.05,158.524 C404.051,164.813 392.272,169.911 377.743,169.911 C363.214,169.911 351.436,164.813 351.436,158.524 L351.436,144.215 z" fill="#9F3838"/>
            <path d="M351.436,144.215 L404.05,144.215 L404.05,158.524 C404.051,164.813 392.272,169.911 377.743,169.911 C363.214,169.911 351.436,164.813 351.436,158.524 L351.436,144.215 z" fill-opacity="0" stroke="#000000" stroke-width="2"/>
          </g>
          <g>
            <path d="M377.743,155.602 C363.214,155.602 351.436,150.504 351.436,144.215 C351.436,137.926 363.214,132.827 377.743,132.827 C392.272,132.827 404.051,137.926 404.051,144.215 C404.051,150.504 392.272,155.602 377.743,155.602 z" fill="#9F3838"/>
            <path d="M377.743,155.602 C363.214,155.602 351.436,150.504 351.436,144.215 C351.436,137.926 363.214,132.827 377.743,132.827 C392.272,132.827 404.051,137.926 404.051,144.215 C404.051,150.504 392.272,155.602 377.743,155.602 z" fill-opacity="0" stroke="#000000" stroke-width="2"/>
          </g>
        </g>
        <g>
          <g>
            <path d="M148.061,119.662 L200.675,119.662 L200.675,133.971 C200.675,140.26 188.897,145.358 174.368,145.358 C159.839,145.358 148.061,140.26 148.061,133.971 L148.061,119.662 z" fill="#9F3838"/>
            <path d="M148.061,119.662 L200.675,119.662 L200.675,133.971 C200.675,140.26 188.897,145.358 174.368,145.358 C159.839,145.358 148.061,140.26 148.061,133.971 L148.061,119.662 z" fill-opacity="0" stroke="#000000" stroke-width="2"/>
          </g>
          <g>
            <path d="M174.368,131.049 C159.839,131.049 148.061,125.951 148.061,119.662 C148.061,113.373 159.839,108.275 174.368,108.275 C188.897,108.275 200.675,113.373 200.675,119.662 C200.675,125.951 188.897,131.049 174.368,131.049 z" fill="#9F3838"/>
            <path d="M174.368,131.049 C159.839,131.049 148.061,125.951 148.061,119.662 C148.061,113.373 159.839,108.275 174.368,108.275 C188.897,108.275 200.675,113.373 200.675,119.662 C200.675,125.951 188.897,131.049 174.368,131.049 z" fill-opacity="0" stroke="#000000" stroke-width="2"/>
          </g>
        </g>
        <g>
          <g>
            <path d="M215.439,95.071 L268.054,95.071 L268.054,109.38 C268.054,115.669 256.276,120.767 241.747,120.767 C227.218,120.767 215.439,115.669 215.439,109.38 L215.439,95.071 z" fill="#9F3838"/>
            <path d="M215.439,95.071 L268.054,95.071 L268.054,109.38 C268.054,115.669 256.276,120.767 241.747,120.767 C227.218,120.767 215.439,115.669 215.439,109.38 L215.439,95.071 z" fill-opacity="0" stroke="#000000" stroke-width="2"/>
          </g>
          <g>
            <path d="M241.747,106.458 C227.218,106.458 215.439,101.36 215.439,95.071 C215.439,88.782 227.218,83.684 241.747,83.684 C256.276,83.684 268.054,88.782 268.054,95.071 C268.054,101.36 256.276,106.458 241.747,106.458 z" fill="#9F3838"/>
            <path d="M241.747,106.458 C227.218,106.458 215.439,101.36 215.439,95.071 C215.439,88.782 227.218,83.684 241.747,83.684 C256.276,83.684 268.054,88.782 268.054,95.071 C268.054,101.36 256.276,106.458 241.747,106.458 z" fill-opacity="0" stroke="#000000" stroke-width="2"/>
          </g>
        </g>
      </g>
      <g>
        <g>
          <path d="M145.674,249.488 L198.288,249.488 L198.288,263.797 C198.288,270.086 186.51,275.184 171.981,275.184 C157.452,275.184 145.674,270.086 145.674,263.797 L145.674,249.488 z" fill="#9F3838"/>
          <path d="M145.674,249.488 L198.288,249.488 L198.288,263.797 C198.288,270.086 186.51,275.184 171.981,275.184 C157.452,275.184 145.674,270.086 145.674,263.797 L145.674,249.488 z" fill-opacity="0" stroke="#000000" stroke-width="2"/>
        </g>
        <g>
          <path d="M171.981,260.875 C157.452,260.875 145.674,255.777 145.674,249.488 C145.674,243.199 157.452,238.101 171.981,238.101 C186.51,238.101 198.288,243.199 198.288,249.488 C198.288,255.777 186.51,260.875 171.981,260.875 z" fill="#9F3838"/>
          <path d="M171.981,260.875 C157.452,260.875 145.674,255.777 145.674,249.488 C145.674,243.199 157.452,238.101 171.981,238.101 C186.51,238.101 198.288,243.199 198.288,249.488 C198.288,255.777 186.51,260.875 171.981,260.875 z" fill-opacity="0" stroke="#000000" stroke-width="2"/>
        </g>
      </g>
      <g>
        <g>
          <path d="M215.071,273.371 L267.685,273.371 L267.685,287.68 C267.685,293.969 255.907,299.067 241.378,299.067 C226.849,299.067 215.071,293.969 215.071,287.68 L215.071,273.371 z" fill="#9F3838"/>
          <path d="M215.071,273.371 L267.685,273.371 L267.685,287.68 C267.685,293.969 255.907,299.067 241.378,299.067 C226.849,299.067 215.071,293.969 215.071,287.68 L215.071,273.371 z" fill-opacity="0" stroke="#000000" stroke-width="2"/>
        </g>
        <g>
          <path d="M241.378,284.758 C226.849,284.758 215.071,279.66 215.071,273.371 C215.071,267.082 226.849,261.984 241.378,261.984 C255.907,261.984 267.685,267.082 267.685,273.371 C267.685,279.66 255.907,284.758 241.378,284.758 z" fill="#9F3838"/>
          <path d="M241.378,284.758 C226.849,284.758 215.071,279.66 215.071,273.371 C215.071,267.082 226.849,261.984 241.378,261.984 C255.907,261.984 267.685,267.082 267.685,273.371 C267.685,279.66 255.907,284.758 241.378,284.758 z" fill-opacity="0" stroke="#000000" stroke-width="2"/>
        </g>
      </g>
      <g>
        <g>
          <path d="M79.117,224.455 L131.732,224.455 L131.732,238.764 C131.732,245.053 119.954,250.151 105.425,250.151 C90.896,250.151 79.117,245.053 79.117,238.764 L79.117,224.455 z" fill="#9F3838"/>
          <path d="M79.117,224.455 L131.732,224.455 L131.732,238.764 C131.732,245.053 119.954,250.151 105.425,250.151 C90.896,250.151 79.117,245.053 79.117,238.764 L79.117,224.455 z" fill-opacity="0" stroke="#000000" stroke-width="2"/>
        </g>
        <g>
          <path d="M105.425,235.842 C90.896,235.842 79.117,230.744 79.117,224.455 C79.117,218.166 90.896,213.068 105.425,213.068 C119.954,213.068 131.732,218.166 131.732,224.455 C131.732,230.744 119.954,235.842 105.425,235.842 z" fill="#9F3838"/>
          <path d="M105.425,235.842 C90.896,235.842 79.117,230.744 79.117,224.455 C79.117,218.166 90.896,213.068 105.425,213.068 C119.954,213.068 131.732,218.166 131.732,224.455 C131.732,230.744 119.954,235.842 105.425,235.842 z" fill-opacity="0" stroke="#000000" stroke-width="2"/>
        </g>
      </g>
    </g>
  </g>
</svg>
